%TF.GenerationSoftware,KiCad,Pcbnew,(5.1.9)-1*%
%TF.CreationDate,2021-08-30T22:49:49-04:00*%
%TF.ProjectId,STM32G491,53544d33-3247-4343-9931-2e6b69636164,rev?*%
%TF.SameCoordinates,Original*%
%TF.FileFunction,Legend,Top*%
%TF.FilePolarity,Positive*%
%FSLAX46Y46*%
G04 Gerber Fmt 4.6, Leading zero omitted, Abs format (unit mm)*
G04 Created by KiCad (PCBNEW (5.1.9)-1) date 2021-08-30 22:49:49*
%MOMM*%
%LPD*%
G01*
G04 APERTURE LIST*
%ADD10C,0.150000*%
%ADD11C,0.153000*%
%ADD12C,0.120000*%
%ADD13C,0.250000*%
%ADD14C,0.200000*%
G04 APERTURE END LIST*
D10*
X176714285Y-99902380D02*
X177285714Y-99902380D01*
X177000000Y-100902380D02*
X177000000Y-99902380D01*
X192114285Y-99902380D02*
X192685714Y-99902380D01*
X192400000Y-100902380D02*
X192400000Y-99902380D01*
X189514285Y-99902380D02*
X190085714Y-99902380D01*
X189800000Y-100902380D02*
X189800000Y-99902380D01*
X199376190Y-99702380D02*
X199709523Y-100702380D01*
X200042857Y-99702380D01*
X200376190Y-100702380D02*
X200376190Y-100035714D01*
X200376190Y-99702380D02*
X200328571Y-99750000D01*
X200376190Y-99797619D01*
X200423809Y-99750000D01*
X200376190Y-99702380D01*
X200376190Y-99797619D01*
X200852380Y-100035714D02*
X200852380Y-100702380D01*
X200852380Y-100130952D02*
X200900000Y-100083333D01*
X200995238Y-100035714D01*
X201138095Y-100035714D01*
X201233333Y-100083333D01*
X201280952Y-100178571D01*
X201280952Y-100702380D01*
X196709523Y-100077380D02*
X196709523Y-99077380D01*
X197090476Y-99077380D01*
X197185714Y-99125000D01*
X197233333Y-99172619D01*
X197280952Y-99267857D01*
X197280952Y-99410714D01*
X197233333Y-99505952D01*
X197185714Y-99553571D01*
X197090476Y-99601190D01*
X196709523Y-99601190D01*
X197661904Y-99791666D02*
X198138095Y-99791666D01*
X197566666Y-100077380D02*
X197900000Y-99077380D01*
X198233333Y-100077380D01*
X197209523Y-101727380D02*
X196638095Y-101727380D01*
X196923809Y-101727380D02*
X196923809Y-100727380D01*
X196828571Y-100870238D01*
X196733333Y-100965476D01*
X196638095Y-101013095D01*
X197828571Y-100727380D02*
X197923809Y-100727380D01*
X198019047Y-100775000D01*
X198066666Y-100822619D01*
X198114285Y-100917857D01*
X198161904Y-101108333D01*
X198161904Y-101346428D01*
X198114285Y-101536904D01*
X198066666Y-101632142D01*
X198019047Y-101679761D01*
X197923809Y-101727380D01*
X197828571Y-101727380D01*
X197733333Y-101679761D01*
X197685714Y-101632142D01*
X197638095Y-101536904D01*
X197590476Y-101346428D01*
X197590476Y-101108333D01*
X197638095Y-100917857D01*
X197685714Y-100822619D01*
X197733333Y-100775000D01*
X197828571Y-100727380D01*
X194109523Y-100077380D02*
X194109523Y-99077380D01*
X194490476Y-99077380D01*
X194585714Y-99125000D01*
X194633333Y-99172619D01*
X194680952Y-99267857D01*
X194680952Y-99410714D01*
X194633333Y-99505952D01*
X194585714Y-99553571D01*
X194490476Y-99601190D01*
X194109523Y-99601190D01*
X195061904Y-99791666D02*
X195538095Y-99791666D01*
X194966666Y-100077380D02*
X195300000Y-99077380D01*
X195633333Y-100077380D01*
X194704761Y-101155952D02*
X194609523Y-101108333D01*
X194561904Y-101060714D01*
X194514285Y-100965476D01*
X194514285Y-100917857D01*
X194561904Y-100822619D01*
X194609523Y-100775000D01*
X194704761Y-100727380D01*
X194895238Y-100727380D01*
X194990476Y-100775000D01*
X195038095Y-100822619D01*
X195085714Y-100917857D01*
X195085714Y-100965476D01*
X195038095Y-101060714D01*
X194990476Y-101108333D01*
X194895238Y-101155952D01*
X194704761Y-101155952D01*
X194609523Y-101203571D01*
X194561904Y-101251190D01*
X194514285Y-101346428D01*
X194514285Y-101536904D01*
X194561904Y-101632142D01*
X194609523Y-101679761D01*
X194704761Y-101727380D01*
X194895238Y-101727380D01*
X194990476Y-101679761D01*
X195038095Y-101632142D01*
X195085714Y-101536904D01*
X195085714Y-101346428D01*
X195038095Y-101251190D01*
X194990476Y-101203571D01*
X194895238Y-101155952D01*
X186638095Y-100077380D02*
X186638095Y-99077380D01*
X187019047Y-99077380D01*
X187114285Y-99125000D01*
X187161904Y-99172619D01*
X187209523Y-99267857D01*
X187209523Y-99410714D01*
X187161904Y-99505952D01*
X187114285Y-99553571D01*
X187019047Y-99601190D01*
X186638095Y-99601190D01*
X187971428Y-99553571D02*
X188114285Y-99601190D01*
X188161904Y-99648809D01*
X188209523Y-99744047D01*
X188209523Y-99886904D01*
X188161904Y-99982142D01*
X188114285Y-100029761D01*
X188019047Y-100077380D01*
X187638095Y-100077380D01*
X187638095Y-99077380D01*
X187971428Y-99077380D01*
X188066666Y-99125000D01*
X188114285Y-99172619D01*
X188161904Y-99267857D01*
X188161904Y-99363095D01*
X188114285Y-99458333D01*
X188066666Y-99505952D01*
X187971428Y-99553571D01*
X187638095Y-99553571D01*
X187209523Y-101727380D02*
X186638095Y-101727380D01*
X186923809Y-101727380D02*
X186923809Y-100727380D01*
X186828571Y-100870238D01*
X186733333Y-100965476D01*
X186638095Y-101013095D01*
X187542857Y-100727380D02*
X188161904Y-100727380D01*
X187828571Y-101108333D01*
X187971428Y-101108333D01*
X188066666Y-101155952D01*
X188114285Y-101203571D01*
X188161904Y-101298809D01*
X188161904Y-101536904D01*
X188114285Y-101632142D01*
X188066666Y-101679761D01*
X187971428Y-101727380D01*
X187685714Y-101727380D01*
X187590476Y-101679761D01*
X187542857Y-101632142D01*
X184038095Y-100077380D02*
X184038095Y-99077380D01*
X184419047Y-99077380D01*
X184514285Y-99125000D01*
X184561904Y-99172619D01*
X184609523Y-99267857D01*
X184609523Y-99410714D01*
X184561904Y-99505952D01*
X184514285Y-99553571D01*
X184419047Y-99601190D01*
X184038095Y-99601190D01*
X185371428Y-99553571D02*
X185514285Y-99601190D01*
X185561904Y-99648809D01*
X185609523Y-99744047D01*
X185609523Y-99886904D01*
X185561904Y-99982142D01*
X185514285Y-100029761D01*
X185419047Y-100077380D01*
X185038095Y-100077380D01*
X185038095Y-99077380D01*
X185371428Y-99077380D01*
X185466666Y-99125000D01*
X185514285Y-99172619D01*
X185561904Y-99267857D01*
X185561904Y-99363095D01*
X185514285Y-99458333D01*
X185466666Y-99505952D01*
X185371428Y-99553571D01*
X185038095Y-99553571D01*
X184609523Y-101727380D02*
X184038095Y-101727380D01*
X184323809Y-101727380D02*
X184323809Y-100727380D01*
X184228571Y-100870238D01*
X184133333Y-100965476D01*
X184038095Y-101013095D01*
X185561904Y-101727380D02*
X184990476Y-101727380D01*
X185276190Y-101727380D02*
X185276190Y-100727380D01*
X185180952Y-100870238D01*
X185085714Y-100965476D01*
X184990476Y-101013095D01*
X181866666Y-99077380D02*
X182200000Y-100077380D01*
X182533333Y-99077380D01*
X181795238Y-101727380D02*
X181461904Y-101251190D01*
X181223809Y-101727380D02*
X181223809Y-100727380D01*
X181604761Y-100727380D01*
X181700000Y-100775000D01*
X181747619Y-100822619D01*
X181795238Y-100917857D01*
X181795238Y-101060714D01*
X181747619Y-101155952D01*
X181700000Y-101203571D01*
X181604761Y-101251190D01*
X181223809Y-101251190D01*
X182604761Y-101679761D02*
X182509523Y-101727380D01*
X182319047Y-101727380D01*
X182223809Y-101679761D01*
X182176190Y-101584523D01*
X182176190Y-101203571D01*
X182223809Y-101108333D01*
X182319047Y-101060714D01*
X182509523Y-101060714D01*
X182604761Y-101108333D01*
X182652380Y-101203571D01*
X182652380Y-101298809D01*
X182176190Y-101394047D01*
X182938095Y-101060714D02*
X183319047Y-101060714D01*
X183080952Y-101727380D02*
X183080952Y-100870238D01*
X183128571Y-100775000D01*
X183223809Y-100727380D01*
X183319047Y-100727380D01*
X178838095Y-100077380D02*
X178838095Y-99077380D01*
X179219047Y-99077380D01*
X179314285Y-99125000D01*
X179361904Y-99172619D01*
X179409523Y-99267857D01*
X179409523Y-99410714D01*
X179361904Y-99505952D01*
X179314285Y-99553571D01*
X179219047Y-99601190D01*
X178838095Y-99601190D01*
X180409523Y-99982142D02*
X180361904Y-100029761D01*
X180219047Y-100077380D01*
X180123809Y-100077380D01*
X179980952Y-100029761D01*
X179885714Y-99934523D01*
X179838095Y-99839285D01*
X179790476Y-99648809D01*
X179790476Y-99505952D01*
X179838095Y-99315476D01*
X179885714Y-99220238D01*
X179980952Y-99125000D01*
X180123809Y-99077380D01*
X180219047Y-99077380D01*
X180361904Y-99125000D01*
X180409523Y-99172619D01*
X179790476Y-101060714D02*
X179790476Y-101727380D01*
X179552380Y-100679761D02*
X179314285Y-101394047D01*
X179933333Y-101394047D01*
X176509523Y-90877380D02*
X176509523Y-89877380D01*
X176890476Y-89877380D01*
X176985714Y-89925000D01*
X177033333Y-89972619D01*
X177080952Y-90067857D01*
X177080952Y-90210714D01*
X177033333Y-90305952D01*
X176985714Y-90353571D01*
X176890476Y-90401190D01*
X176509523Y-90401190D01*
X177461904Y-90591666D02*
X177938095Y-90591666D01*
X177366666Y-90877380D02*
X177700000Y-89877380D01*
X178033333Y-90877380D01*
X177390476Y-91860714D02*
X177390476Y-92527380D01*
X177152380Y-91479761D02*
X176914285Y-92194047D01*
X177533333Y-92194047D01*
X179109523Y-90877380D02*
X179109523Y-89877380D01*
X179490476Y-89877380D01*
X179585714Y-89925000D01*
X179633333Y-89972619D01*
X179680952Y-90067857D01*
X179680952Y-90210714D01*
X179633333Y-90305952D01*
X179585714Y-90353571D01*
X179490476Y-90401190D01*
X179109523Y-90401190D01*
X180061904Y-90591666D02*
X180538095Y-90591666D01*
X179966666Y-90877380D02*
X180300000Y-89877380D01*
X180633333Y-90877380D01*
X180038095Y-91527380D02*
X179561904Y-91527380D01*
X179514285Y-92003571D01*
X179561904Y-91955952D01*
X179657142Y-91908333D01*
X179895238Y-91908333D01*
X179990476Y-91955952D01*
X180038095Y-92003571D01*
X180085714Y-92098809D01*
X180085714Y-92336904D01*
X180038095Y-92432142D01*
X179990476Y-92479761D01*
X179895238Y-92527380D01*
X179657142Y-92527380D01*
X179561904Y-92479761D01*
X179514285Y-92432142D01*
X181438095Y-90877380D02*
X181438095Y-89877380D01*
X181819047Y-89877380D01*
X181914285Y-89925000D01*
X181961904Y-89972619D01*
X182009523Y-90067857D01*
X182009523Y-90210714D01*
X181961904Y-90305952D01*
X181914285Y-90353571D01*
X181819047Y-90401190D01*
X181438095Y-90401190D01*
X182771428Y-90353571D02*
X182914285Y-90401190D01*
X182961904Y-90448809D01*
X183009523Y-90544047D01*
X183009523Y-90686904D01*
X182961904Y-90782142D01*
X182914285Y-90829761D01*
X182819047Y-90877380D01*
X182438095Y-90877380D01*
X182438095Y-89877380D01*
X182771428Y-89877380D01*
X182866666Y-89925000D01*
X182914285Y-89972619D01*
X182961904Y-90067857D01*
X182961904Y-90163095D01*
X182914285Y-90258333D01*
X182866666Y-90305952D01*
X182771428Y-90353571D01*
X182438095Y-90353571D01*
X181914285Y-91622619D02*
X181961904Y-91575000D01*
X182057142Y-91527380D01*
X182295238Y-91527380D01*
X182390476Y-91575000D01*
X182438095Y-91622619D01*
X182485714Y-91717857D01*
X182485714Y-91813095D01*
X182438095Y-91955952D01*
X181866666Y-92527380D01*
X182485714Y-92527380D01*
X184038095Y-90877380D02*
X184038095Y-89877380D01*
X184419047Y-89877380D01*
X184514285Y-89925000D01*
X184561904Y-89972619D01*
X184609523Y-90067857D01*
X184609523Y-90210714D01*
X184561904Y-90305952D01*
X184514285Y-90353571D01*
X184419047Y-90401190D01*
X184038095Y-90401190D01*
X185371428Y-90353571D02*
X185514285Y-90401190D01*
X185561904Y-90448809D01*
X185609523Y-90544047D01*
X185609523Y-90686904D01*
X185561904Y-90782142D01*
X185514285Y-90829761D01*
X185419047Y-90877380D01*
X185038095Y-90877380D01*
X185038095Y-89877380D01*
X185371428Y-89877380D01*
X185466666Y-89925000D01*
X185514285Y-89972619D01*
X185561904Y-90067857D01*
X185561904Y-90163095D01*
X185514285Y-90258333D01*
X185466666Y-90305952D01*
X185371428Y-90353571D01*
X185038095Y-90353571D01*
X184609523Y-92527380D02*
X184038095Y-92527380D01*
X184323809Y-92527380D02*
X184323809Y-91527380D01*
X184228571Y-91670238D01*
X184133333Y-91765476D01*
X184038095Y-91813095D01*
X185228571Y-91527380D02*
X185323809Y-91527380D01*
X185419047Y-91575000D01*
X185466666Y-91622619D01*
X185514285Y-91717857D01*
X185561904Y-91908333D01*
X185561904Y-92146428D01*
X185514285Y-92336904D01*
X185466666Y-92432142D01*
X185419047Y-92479761D01*
X185323809Y-92527380D01*
X185228571Y-92527380D01*
X185133333Y-92479761D01*
X185085714Y-92432142D01*
X185038095Y-92336904D01*
X184990476Y-92146428D01*
X184990476Y-91908333D01*
X185038095Y-91717857D01*
X185085714Y-91622619D01*
X185133333Y-91575000D01*
X185228571Y-91527380D01*
X186638095Y-90877380D02*
X186638095Y-89877380D01*
X187019047Y-89877380D01*
X187114285Y-89925000D01*
X187161904Y-89972619D01*
X187209523Y-90067857D01*
X187209523Y-90210714D01*
X187161904Y-90305952D01*
X187114285Y-90353571D01*
X187019047Y-90401190D01*
X186638095Y-90401190D01*
X187971428Y-90353571D02*
X188114285Y-90401190D01*
X188161904Y-90448809D01*
X188209523Y-90544047D01*
X188209523Y-90686904D01*
X188161904Y-90782142D01*
X188114285Y-90829761D01*
X188019047Y-90877380D01*
X187638095Y-90877380D01*
X187638095Y-89877380D01*
X187971428Y-89877380D01*
X188066666Y-89925000D01*
X188114285Y-89972619D01*
X188161904Y-90067857D01*
X188161904Y-90163095D01*
X188114285Y-90258333D01*
X188066666Y-90305952D01*
X187971428Y-90353571D01*
X187638095Y-90353571D01*
X187209523Y-92527380D02*
X186638095Y-92527380D01*
X186923809Y-92527380D02*
X186923809Y-91527380D01*
X186828571Y-91670238D01*
X186733333Y-91765476D01*
X186638095Y-91813095D01*
X187590476Y-91622619D02*
X187638095Y-91575000D01*
X187733333Y-91527380D01*
X187971428Y-91527380D01*
X188066666Y-91575000D01*
X188114285Y-91622619D01*
X188161904Y-91717857D01*
X188161904Y-91813095D01*
X188114285Y-91955952D01*
X187542857Y-92527380D01*
X188161904Y-92527380D01*
X189038095Y-90877380D02*
X189038095Y-89877380D01*
X189419047Y-89877380D01*
X189514285Y-89925000D01*
X189561904Y-89972619D01*
X189609523Y-90067857D01*
X189609523Y-90210714D01*
X189561904Y-90305952D01*
X189514285Y-90353571D01*
X189419047Y-90401190D01*
X189038095Y-90401190D01*
X190371428Y-90353571D02*
X190514285Y-90401190D01*
X190561904Y-90448809D01*
X190609523Y-90544047D01*
X190609523Y-90686904D01*
X190561904Y-90782142D01*
X190514285Y-90829761D01*
X190419047Y-90877380D01*
X190038095Y-90877380D01*
X190038095Y-89877380D01*
X190371428Y-89877380D01*
X190466666Y-89925000D01*
X190514285Y-89972619D01*
X190561904Y-90067857D01*
X190561904Y-90163095D01*
X190514285Y-90258333D01*
X190466666Y-90305952D01*
X190371428Y-90353571D01*
X190038095Y-90353571D01*
X189609523Y-92527380D02*
X189038095Y-92527380D01*
X189323809Y-92527380D02*
X189323809Y-91527380D01*
X189228571Y-91670238D01*
X189133333Y-91765476D01*
X189038095Y-91813095D01*
X190466666Y-91860714D02*
X190466666Y-92527380D01*
X190228571Y-91479761D02*
X189990476Y-92194047D01*
X190609523Y-92194047D01*
X191638095Y-90877380D02*
X191638095Y-89877380D01*
X192019047Y-89877380D01*
X192114285Y-89925000D01*
X192161904Y-89972619D01*
X192209523Y-90067857D01*
X192209523Y-90210714D01*
X192161904Y-90305952D01*
X192114285Y-90353571D01*
X192019047Y-90401190D01*
X191638095Y-90401190D01*
X192971428Y-90353571D02*
X193114285Y-90401190D01*
X193161904Y-90448809D01*
X193209523Y-90544047D01*
X193209523Y-90686904D01*
X193161904Y-90782142D01*
X193114285Y-90829761D01*
X193019047Y-90877380D01*
X192638095Y-90877380D01*
X192638095Y-89877380D01*
X192971428Y-89877380D01*
X193066666Y-89925000D01*
X193114285Y-89972619D01*
X193161904Y-90067857D01*
X193161904Y-90163095D01*
X193114285Y-90258333D01*
X193066666Y-90305952D01*
X192971428Y-90353571D01*
X192638095Y-90353571D01*
X192209523Y-92527380D02*
X191638095Y-92527380D01*
X191923809Y-92527380D02*
X191923809Y-91527380D01*
X191828571Y-91670238D01*
X191733333Y-91765476D01*
X191638095Y-91813095D01*
X193114285Y-91527380D02*
X192638095Y-91527380D01*
X192590476Y-92003571D01*
X192638095Y-91955952D01*
X192733333Y-91908333D01*
X192971428Y-91908333D01*
X193066666Y-91955952D01*
X193114285Y-92003571D01*
X193161904Y-92098809D01*
X193161904Y-92336904D01*
X193114285Y-92432142D01*
X193066666Y-92479761D01*
X192971428Y-92527380D01*
X192733333Y-92527380D01*
X192638095Y-92479761D01*
X192590476Y-92432142D01*
X194238095Y-90877380D02*
X194238095Y-89877380D01*
X194619047Y-89877380D01*
X194714285Y-89925000D01*
X194761904Y-89972619D01*
X194809523Y-90067857D01*
X194809523Y-90210714D01*
X194761904Y-90305952D01*
X194714285Y-90353571D01*
X194619047Y-90401190D01*
X194238095Y-90401190D01*
X195809523Y-90782142D02*
X195761904Y-90829761D01*
X195619047Y-90877380D01*
X195523809Y-90877380D01*
X195380952Y-90829761D01*
X195285714Y-90734523D01*
X195238095Y-90639285D01*
X195190476Y-90448809D01*
X195190476Y-90305952D01*
X195238095Y-90115476D01*
X195285714Y-90020238D01*
X195380952Y-89925000D01*
X195523809Y-89877380D01*
X195619047Y-89877380D01*
X195761904Y-89925000D01*
X195809523Y-89972619D01*
X195190476Y-91527380D02*
X195000000Y-91527380D01*
X194904761Y-91575000D01*
X194857142Y-91622619D01*
X194761904Y-91765476D01*
X194714285Y-91955952D01*
X194714285Y-92336904D01*
X194761904Y-92432142D01*
X194809523Y-92479761D01*
X194904761Y-92527380D01*
X195095238Y-92527380D01*
X195190476Y-92479761D01*
X195238095Y-92432142D01*
X195285714Y-92336904D01*
X195285714Y-92098809D01*
X195238095Y-92003571D01*
X195190476Y-91955952D01*
X195095238Y-91908333D01*
X194904761Y-91908333D01*
X194809523Y-91955952D01*
X194761904Y-92003571D01*
X194714285Y-92098809D01*
X196709523Y-90877380D02*
X196709523Y-89877380D01*
X197090476Y-89877380D01*
X197185714Y-89925000D01*
X197233333Y-89972619D01*
X197280952Y-90067857D01*
X197280952Y-90210714D01*
X197233333Y-90305952D01*
X197185714Y-90353571D01*
X197090476Y-90401190D01*
X196709523Y-90401190D01*
X197661904Y-90591666D02*
X198138095Y-90591666D01*
X197566666Y-90877380D02*
X197900000Y-89877380D01*
X198233333Y-90877380D01*
X197209523Y-92527380D02*
X197400000Y-92527380D01*
X197495238Y-92479761D01*
X197542857Y-92432142D01*
X197638095Y-92289285D01*
X197685714Y-92098809D01*
X197685714Y-91717857D01*
X197638095Y-91622619D01*
X197590476Y-91575000D01*
X197495238Y-91527380D01*
X197304761Y-91527380D01*
X197209523Y-91575000D01*
X197161904Y-91622619D01*
X197114285Y-91717857D01*
X197114285Y-91955952D01*
X197161904Y-92051190D01*
X197209523Y-92098809D01*
X197304761Y-92146428D01*
X197495238Y-92146428D01*
X197590476Y-92098809D01*
X197638095Y-92051190D01*
X197685714Y-91955952D01*
X199152380Y-90902380D02*
X199771428Y-90902380D01*
X199438095Y-91283333D01*
X199580952Y-91283333D01*
X199676190Y-91330952D01*
X199723809Y-91378571D01*
X199771428Y-91473809D01*
X199771428Y-91711904D01*
X199723809Y-91807142D01*
X199676190Y-91854761D01*
X199580952Y-91902380D01*
X199295238Y-91902380D01*
X199200000Y-91854761D01*
X199152380Y-91807142D01*
X200200000Y-91807142D02*
X200247619Y-91854761D01*
X200200000Y-91902380D01*
X200152380Y-91854761D01*
X200200000Y-91807142D01*
X200200000Y-91902380D01*
X200580952Y-90902380D02*
X201200000Y-90902380D01*
X200866666Y-91283333D01*
X201009523Y-91283333D01*
X201104761Y-91330952D01*
X201152380Y-91378571D01*
X201200000Y-91473809D01*
X201200000Y-91711904D01*
X201152380Y-91807142D01*
X201104761Y-91854761D01*
X201009523Y-91902380D01*
X200723809Y-91902380D01*
X200628571Y-91854761D01*
X200580952Y-91807142D01*
X197314285Y-59102380D02*
X197885714Y-59102380D01*
X197600000Y-60102380D02*
X197600000Y-59102380D01*
X186914285Y-58902380D02*
X187485714Y-58902380D01*
X187200000Y-59902380D02*
X187200000Y-58902380D01*
X184314285Y-58902380D02*
X184885714Y-58902380D01*
X184600000Y-59902380D02*
X184600000Y-58902380D01*
X179314285Y-58902380D02*
X179885714Y-58902380D01*
X179600000Y-59902380D02*
X179600000Y-58902380D01*
X176914285Y-58902380D02*
X177485714Y-58902380D01*
X177200000Y-59902380D02*
X177200000Y-58902380D01*
D11*
X181438095Y-59075880D02*
X181438095Y-58075880D01*
X181819047Y-58075880D01*
X181914285Y-58123500D01*
X181961904Y-58171119D01*
X182009523Y-58266357D01*
X182009523Y-58409214D01*
X181961904Y-58504452D01*
X181914285Y-58552071D01*
X181819047Y-58599690D01*
X181438095Y-58599690D01*
X182771428Y-58552071D02*
X182914285Y-58599690D01*
X182961904Y-58647309D01*
X183009523Y-58742547D01*
X183009523Y-58885404D01*
X182961904Y-58980642D01*
X182914285Y-59028261D01*
X182819047Y-59075880D01*
X182438095Y-59075880D01*
X182438095Y-58075880D01*
X182771428Y-58075880D01*
X182866666Y-58123500D01*
X182914285Y-58171119D01*
X182961904Y-58266357D01*
X182961904Y-58361595D01*
X182914285Y-58456833D01*
X182866666Y-58504452D01*
X182771428Y-58552071D01*
X182438095Y-58552071D01*
X182104761Y-60157452D02*
X182009523Y-60109833D01*
X181961904Y-60062214D01*
X181914285Y-59966976D01*
X181914285Y-59919357D01*
X181961904Y-59824119D01*
X182009523Y-59776500D01*
X182104761Y-59728880D01*
X182295238Y-59728880D01*
X182390476Y-59776500D01*
X182438095Y-59824119D01*
X182485714Y-59919357D01*
X182485714Y-59966976D01*
X182438095Y-60062214D01*
X182390476Y-60109833D01*
X182295238Y-60157452D01*
X182104761Y-60157452D01*
X182009523Y-60205071D01*
X181961904Y-60252690D01*
X181914285Y-60347928D01*
X181914285Y-60538404D01*
X181961904Y-60633642D01*
X182009523Y-60681261D01*
X182104761Y-60728880D01*
X182295238Y-60728880D01*
X182390476Y-60681261D01*
X182438095Y-60633642D01*
X182485714Y-60538404D01*
X182485714Y-60347928D01*
X182438095Y-60252690D01*
X182390476Y-60205071D01*
X182295238Y-60157452D01*
X189038095Y-59075880D02*
X189038095Y-58075880D01*
X189419047Y-58075880D01*
X189514285Y-58123500D01*
X189561904Y-58171119D01*
X189609523Y-58266357D01*
X189609523Y-58409214D01*
X189561904Y-58504452D01*
X189514285Y-58552071D01*
X189419047Y-58599690D01*
X189038095Y-58599690D01*
X190371428Y-58552071D02*
X190514285Y-58599690D01*
X190561904Y-58647309D01*
X190609523Y-58742547D01*
X190609523Y-58885404D01*
X190561904Y-58980642D01*
X190514285Y-59028261D01*
X190419047Y-59075880D01*
X190038095Y-59075880D01*
X190038095Y-58075880D01*
X190371428Y-58075880D01*
X190466666Y-58123500D01*
X190514285Y-58171119D01*
X190561904Y-58266357D01*
X190561904Y-58361595D01*
X190514285Y-58456833D01*
X190466666Y-58504452D01*
X190371428Y-58552071D01*
X190038095Y-58552071D01*
X189990476Y-60062214D02*
X189990476Y-60728880D01*
X189752380Y-59681261D02*
X189514285Y-60395547D01*
X190133333Y-60395547D01*
X191638095Y-59075880D02*
X191638095Y-58075880D01*
X192019047Y-58075880D01*
X192114285Y-58123500D01*
X192161904Y-58171119D01*
X192209523Y-58266357D01*
X192209523Y-58409214D01*
X192161904Y-58504452D01*
X192114285Y-58552071D01*
X192019047Y-58599690D01*
X191638095Y-58599690D01*
X193209523Y-58980642D02*
X193161904Y-59028261D01*
X193019047Y-59075880D01*
X192923809Y-59075880D01*
X192780952Y-59028261D01*
X192685714Y-58933023D01*
X192638095Y-58837785D01*
X192590476Y-58647309D01*
X192590476Y-58504452D01*
X192638095Y-58313976D01*
X192685714Y-58218738D01*
X192780952Y-58123500D01*
X192923809Y-58075880D01*
X193019047Y-58075880D01*
X193161904Y-58123500D01*
X193209523Y-58171119D01*
X192209523Y-60728880D02*
X191638095Y-60728880D01*
X191923809Y-60728880D02*
X191923809Y-59728880D01*
X191828571Y-59871738D01*
X191733333Y-59966976D01*
X191638095Y-60014595D01*
X193161904Y-60728880D02*
X192590476Y-60728880D01*
X192876190Y-60728880D02*
X192876190Y-59728880D01*
X192780952Y-59871738D01*
X192685714Y-59966976D01*
X192590476Y-60014595D01*
X194309523Y-59075880D02*
X194309523Y-58075880D01*
X194690476Y-58075880D01*
X194785714Y-58123500D01*
X194833333Y-58171119D01*
X194880952Y-58266357D01*
X194880952Y-58409214D01*
X194833333Y-58504452D01*
X194785714Y-58552071D01*
X194690476Y-58599690D01*
X194309523Y-58599690D01*
X195261904Y-58790166D02*
X195738095Y-58790166D01*
X195166666Y-59075880D02*
X195500000Y-58075880D01*
X195833333Y-59075880D01*
X194809523Y-60728880D02*
X194238095Y-60728880D01*
X194523809Y-60728880D02*
X194523809Y-59728880D01*
X194428571Y-59871738D01*
X194333333Y-59966976D01*
X194238095Y-60014595D01*
X195714285Y-59728880D02*
X195238095Y-59728880D01*
X195190476Y-60205071D01*
X195238095Y-60157452D01*
X195333333Y-60109833D01*
X195571428Y-60109833D01*
X195666666Y-60157452D01*
X195714285Y-60205071D01*
X195761904Y-60300309D01*
X195761904Y-60538404D01*
X195714285Y-60633642D01*
X195666666Y-60681261D01*
X195571428Y-60728880D01*
X195333333Y-60728880D01*
X195238095Y-60681261D01*
X195190476Y-60633642D01*
X198738095Y-58075880D02*
X198738095Y-58885404D01*
X198785714Y-58980642D01*
X198833333Y-59028261D01*
X198928571Y-59075880D01*
X199119047Y-59075880D01*
X199214285Y-59028261D01*
X199261904Y-58980642D01*
X199309523Y-58885404D01*
X199309523Y-58075880D01*
X199738095Y-59028261D02*
X199880952Y-59075880D01*
X200119047Y-59075880D01*
X200214285Y-59028261D01*
X200261904Y-58980642D01*
X200309523Y-58885404D01*
X200309523Y-58790166D01*
X200261904Y-58694928D01*
X200214285Y-58647309D01*
X200119047Y-58599690D01*
X199928571Y-58552071D01*
X199833333Y-58504452D01*
X199785714Y-58456833D01*
X199738095Y-58361595D01*
X199738095Y-58266357D01*
X199785714Y-58171119D01*
X199833333Y-58123500D01*
X199928571Y-58075880D01*
X200166666Y-58075880D01*
X200309523Y-58123500D01*
X201071428Y-58552071D02*
X201214285Y-58599690D01*
X201261904Y-58647309D01*
X201309523Y-58742547D01*
X201309523Y-58885404D01*
X201261904Y-58980642D01*
X201214285Y-59028261D01*
X201119047Y-59075880D01*
X200738095Y-59075880D01*
X200738095Y-58075880D01*
X201071428Y-58075880D01*
X201166666Y-58123500D01*
X201214285Y-58171119D01*
X201261904Y-58266357D01*
X201261904Y-58361595D01*
X201214285Y-58456833D01*
X201166666Y-58504452D01*
X201071428Y-58552071D01*
X200738095Y-58552071D01*
X199500000Y-60728880D02*
X199500000Y-59728880D01*
X199976190Y-60728880D02*
X199976190Y-59728880D01*
X200214285Y-59728880D01*
X200357142Y-59776500D01*
X200452380Y-59871738D01*
X200500000Y-59966976D01*
X200547619Y-60157452D01*
X200547619Y-60300309D01*
X200500000Y-60490785D01*
X200452380Y-60586023D01*
X200357142Y-60681261D01*
X200214285Y-60728880D01*
X199976190Y-60728880D01*
X176133333Y-68178571D02*
X176276190Y-68226190D01*
X176323809Y-68273809D01*
X176371428Y-68369047D01*
X176371428Y-68511904D01*
X176323809Y-68607142D01*
X176276190Y-68654761D01*
X176180952Y-68702380D01*
X175800000Y-68702380D01*
X175800000Y-67702380D01*
X176133333Y-67702380D01*
X176228571Y-67750000D01*
X176276190Y-67797619D01*
X176323809Y-67892857D01*
X176323809Y-67988095D01*
X176276190Y-68083333D01*
X176228571Y-68130952D01*
X176133333Y-68178571D01*
X175800000Y-68178571D01*
X177228571Y-68702380D02*
X177228571Y-68178571D01*
X177180952Y-68083333D01*
X177085714Y-68035714D01*
X176895238Y-68035714D01*
X176800000Y-68083333D01*
X177228571Y-68654761D02*
X177133333Y-68702380D01*
X176895238Y-68702380D01*
X176800000Y-68654761D01*
X176752380Y-68559523D01*
X176752380Y-68464285D01*
X176800000Y-68369047D01*
X176895238Y-68321428D01*
X177133333Y-68321428D01*
X177228571Y-68273809D01*
X177561904Y-68035714D02*
X177942857Y-68035714D01*
X177704761Y-67702380D02*
X177704761Y-68559523D01*
X177752380Y-68654761D01*
X177847619Y-68702380D01*
X177942857Y-68702380D01*
X178838095Y-68075880D02*
X178838095Y-67075880D01*
X179219047Y-67075880D01*
X179314285Y-67123500D01*
X179361904Y-67171119D01*
X179409523Y-67266357D01*
X179409523Y-67409214D01*
X179361904Y-67504452D01*
X179314285Y-67552071D01*
X179219047Y-67599690D01*
X178838095Y-67599690D01*
X180409523Y-67980642D02*
X180361904Y-68028261D01*
X180219047Y-68075880D01*
X180123809Y-68075880D01*
X179980952Y-68028261D01*
X179885714Y-67933023D01*
X179838095Y-67837785D01*
X179790476Y-67647309D01*
X179790476Y-67504452D01*
X179838095Y-67313976D01*
X179885714Y-67218738D01*
X179980952Y-67123500D01*
X180123809Y-67075880D01*
X180219047Y-67075880D01*
X180361904Y-67123500D01*
X180409523Y-67171119D01*
X179409523Y-69728880D02*
X178838095Y-69728880D01*
X179123809Y-69728880D02*
X179123809Y-68728880D01*
X179028571Y-68871738D01*
X178933333Y-68966976D01*
X178838095Y-69014595D01*
X179742857Y-68728880D02*
X180361904Y-68728880D01*
X180028571Y-69109833D01*
X180171428Y-69109833D01*
X180266666Y-69157452D01*
X180314285Y-69205071D01*
X180361904Y-69300309D01*
X180361904Y-69538404D01*
X180314285Y-69633642D01*
X180266666Y-69681261D01*
X180171428Y-69728880D01*
X179885714Y-69728880D01*
X179790476Y-69681261D01*
X179742857Y-69633642D01*
X181438095Y-68075880D02*
X181438095Y-67075880D01*
X181819047Y-67075880D01*
X181914285Y-67123500D01*
X181961904Y-67171119D01*
X182009523Y-67266357D01*
X182009523Y-67409214D01*
X181961904Y-67504452D01*
X181914285Y-67552071D01*
X181819047Y-67599690D01*
X181438095Y-67599690D01*
X182771428Y-67552071D02*
X182914285Y-67599690D01*
X182961904Y-67647309D01*
X183009523Y-67742547D01*
X183009523Y-67885404D01*
X182961904Y-67980642D01*
X182914285Y-68028261D01*
X182819047Y-68075880D01*
X182438095Y-68075880D01*
X182438095Y-67075880D01*
X182771428Y-67075880D01*
X182866666Y-67123500D01*
X182914285Y-67171119D01*
X182961904Y-67266357D01*
X182961904Y-67361595D01*
X182914285Y-67456833D01*
X182866666Y-67504452D01*
X182771428Y-67552071D01*
X182438095Y-67552071D01*
X182009523Y-69728880D02*
X182200000Y-69728880D01*
X182295238Y-69681261D01*
X182342857Y-69633642D01*
X182438095Y-69490785D01*
X182485714Y-69300309D01*
X182485714Y-68919357D01*
X182438095Y-68824119D01*
X182390476Y-68776500D01*
X182295238Y-68728880D01*
X182104761Y-68728880D01*
X182009523Y-68776500D01*
X181961904Y-68824119D01*
X181914285Y-68919357D01*
X181914285Y-69157452D01*
X181961904Y-69252690D01*
X182009523Y-69300309D01*
X182104761Y-69347928D01*
X182295238Y-69347928D01*
X182390476Y-69300309D01*
X182438095Y-69252690D01*
X182485714Y-69157452D01*
X184038095Y-68075880D02*
X184038095Y-67075880D01*
X184419047Y-67075880D01*
X184514285Y-67123500D01*
X184561904Y-67171119D01*
X184609523Y-67266357D01*
X184609523Y-67409214D01*
X184561904Y-67504452D01*
X184514285Y-67552071D01*
X184419047Y-67599690D01*
X184038095Y-67599690D01*
X185371428Y-67552071D02*
X185514285Y-67599690D01*
X185561904Y-67647309D01*
X185609523Y-67742547D01*
X185609523Y-67885404D01*
X185561904Y-67980642D01*
X185514285Y-68028261D01*
X185419047Y-68075880D01*
X185038095Y-68075880D01*
X185038095Y-67075880D01*
X185371428Y-67075880D01*
X185466666Y-67123500D01*
X185514285Y-67171119D01*
X185561904Y-67266357D01*
X185561904Y-67361595D01*
X185514285Y-67456833D01*
X185466666Y-67504452D01*
X185371428Y-67552071D01*
X185038095Y-67552071D01*
X184466666Y-68728880D02*
X185133333Y-68728880D01*
X184704761Y-69728880D01*
X186438095Y-68075880D02*
X186438095Y-67075880D01*
X186819047Y-67075880D01*
X186914285Y-67123500D01*
X186961904Y-67171119D01*
X187009523Y-67266357D01*
X187009523Y-67409214D01*
X186961904Y-67504452D01*
X186914285Y-67552071D01*
X186819047Y-67599690D01*
X186438095Y-67599690D01*
X187771428Y-67552071D02*
X187914285Y-67599690D01*
X187961904Y-67647309D01*
X188009523Y-67742547D01*
X188009523Y-67885404D01*
X187961904Y-67980642D01*
X187914285Y-68028261D01*
X187819047Y-68075880D01*
X187438095Y-68075880D01*
X187438095Y-67075880D01*
X187771428Y-67075880D01*
X187866666Y-67123500D01*
X187914285Y-67171119D01*
X187961904Y-67266357D01*
X187961904Y-67361595D01*
X187914285Y-67456833D01*
X187866666Y-67504452D01*
X187771428Y-67552071D01*
X187438095Y-67552071D01*
X187390476Y-68728880D02*
X187200000Y-68728880D01*
X187104761Y-68776500D01*
X187057142Y-68824119D01*
X186961904Y-68966976D01*
X186914285Y-69157452D01*
X186914285Y-69538404D01*
X186961904Y-69633642D01*
X187009523Y-69681261D01*
X187104761Y-69728880D01*
X187295238Y-69728880D01*
X187390476Y-69681261D01*
X187438095Y-69633642D01*
X187485714Y-69538404D01*
X187485714Y-69300309D01*
X187438095Y-69205071D01*
X187390476Y-69157452D01*
X187295238Y-69109833D01*
X187104761Y-69109833D01*
X187009523Y-69157452D01*
X186961904Y-69205071D01*
X186914285Y-69300309D01*
X189038095Y-68075880D02*
X189038095Y-67075880D01*
X189419047Y-67075880D01*
X189514285Y-67123500D01*
X189561904Y-67171119D01*
X189609523Y-67266357D01*
X189609523Y-67409214D01*
X189561904Y-67504452D01*
X189514285Y-67552071D01*
X189419047Y-67599690D01*
X189038095Y-67599690D01*
X190371428Y-67552071D02*
X190514285Y-67599690D01*
X190561904Y-67647309D01*
X190609523Y-67742547D01*
X190609523Y-67885404D01*
X190561904Y-67980642D01*
X190514285Y-68028261D01*
X190419047Y-68075880D01*
X190038095Y-68075880D01*
X190038095Y-67075880D01*
X190371428Y-67075880D01*
X190466666Y-67123500D01*
X190514285Y-67171119D01*
X190561904Y-67266357D01*
X190561904Y-67361595D01*
X190514285Y-67456833D01*
X190466666Y-67504452D01*
X190371428Y-67552071D01*
X190038095Y-67552071D01*
X190038095Y-68728880D02*
X189561904Y-68728880D01*
X189514285Y-69205071D01*
X189561904Y-69157452D01*
X189657142Y-69109833D01*
X189895238Y-69109833D01*
X189990476Y-69157452D01*
X190038095Y-69205071D01*
X190085714Y-69300309D01*
X190085714Y-69538404D01*
X190038095Y-69633642D01*
X189990476Y-69681261D01*
X189895238Y-69728880D01*
X189657142Y-69728880D01*
X189561904Y-69681261D01*
X189514285Y-69633642D01*
X191638095Y-68075880D02*
X191638095Y-67075880D01*
X192019047Y-67075880D01*
X192114285Y-67123500D01*
X192161904Y-67171119D01*
X192209523Y-67266357D01*
X192209523Y-67409214D01*
X192161904Y-67504452D01*
X192114285Y-67552071D01*
X192019047Y-67599690D01*
X191638095Y-67599690D01*
X192971428Y-67552071D02*
X193114285Y-67599690D01*
X193161904Y-67647309D01*
X193209523Y-67742547D01*
X193209523Y-67885404D01*
X193161904Y-67980642D01*
X193114285Y-68028261D01*
X193019047Y-68075880D01*
X192638095Y-68075880D01*
X192638095Y-67075880D01*
X192971428Y-67075880D01*
X193066666Y-67123500D01*
X193114285Y-67171119D01*
X193161904Y-67266357D01*
X193161904Y-67361595D01*
X193114285Y-67456833D01*
X193066666Y-67504452D01*
X192971428Y-67552071D01*
X192638095Y-67552071D01*
X192066666Y-68728880D02*
X192685714Y-68728880D01*
X192352380Y-69109833D01*
X192495238Y-69109833D01*
X192590476Y-69157452D01*
X192638095Y-69205071D01*
X192685714Y-69300309D01*
X192685714Y-69538404D01*
X192638095Y-69633642D01*
X192590476Y-69681261D01*
X192495238Y-69728880D01*
X192209523Y-69728880D01*
X192114285Y-69681261D01*
X192066666Y-69633642D01*
X194309523Y-68075880D02*
X194309523Y-67075880D01*
X194690476Y-67075880D01*
X194785714Y-67123500D01*
X194833333Y-67171119D01*
X194880952Y-67266357D01*
X194880952Y-67409214D01*
X194833333Y-67504452D01*
X194785714Y-67552071D01*
X194690476Y-67599690D01*
X194309523Y-67599690D01*
X195261904Y-67790166D02*
X195738095Y-67790166D01*
X195166666Y-68075880D02*
X195500000Y-67075880D01*
X195833333Y-68075880D01*
X194809523Y-69728880D02*
X194238095Y-69728880D01*
X194523809Y-69728880D02*
X194523809Y-68728880D01*
X194428571Y-68871738D01*
X194333333Y-68966976D01*
X194238095Y-69014595D01*
X195428571Y-68728880D02*
X195523809Y-68728880D01*
X195619047Y-68776500D01*
X195666666Y-68824119D01*
X195714285Y-68919357D01*
X195761904Y-69109833D01*
X195761904Y-69347928D01*
X195714285Y-69538404D01*
X195666666Y-69633642D01*
X195619047Y-69681261D01*
X195523809Y-69728880D01*
X195428571Y-69728880D01*
X195333333Y-69681261D01*
X195285714Y-69633642D01*
X195238095Y-69538404D01*
X195190476Y-69347928D01*
X195190476Y-69109833D01*
X195238095Y-68919357D01*
X195285714Y-68824119D01*
X195333333Y-68776500D01*
X195428571Y-68728880D01*
X196909523Y-68075880D02*
X196909523Y-67075880D01*
X197290476Y-67075880D01*
X197385714Y-67123500D01*
X197433333Y-67171119D01*
X197480952Y-67266357D01*
X197480952Y-67409214D01*
X197433333Y-67504452D01*
X197385714Y-67552071D01*
X197290476Y-67599690D01*
X196909523Y-67599690D01*
X197861904Y-67790166D02*
X198338095Y-67790166D01*
X197766666Y-68075880D02*
X198100000Y-67075880D01*
X198433333Y-68075880D01*
X197409523Y-69728880D02*
X196838095Y-69728880D01*
X197123809Y-69728880D02*
X197123809Y-68728880D01*
X197028571Y-68871738D01*
X196933333Y-68966976D01*
X196838095Y-69014595D01*
X198266666Y-69062214D02*
X198266666Y-69728880D01*
X198028571Y-68681261D02*
X197790476Y-69395547D01*
X198409523Y-69395547D01*
X199309523Y-68075880D02*
X199309523Y-67075880D01*
X199690476Y-67075880D01*
X199785714Y-67123500D01*
X199833333Y-67171119D01*
X199880952Y-67266357D01*
X199880952Y-67409214D01*
X199833333Y-67504452D01*
X199785714Y-67552071D01*
X199690476Y-67599690D01*
X199309523Y-67599690D01*
X200261904Y-67790166D02*
X200738095Y-67790166D01*
X200166666Y-68075880D02*
X200500000Y-67075880D01*
X200833333Y-68075880D01*
X199809523Y-69728880D02*
X199238095Y-69728880D01*
X199523809Y-69728880D02*
X199523809Y-68728880D01*
X199428571Y-68871738D01*
X199333333Y-68966976D01*
X199238095Y-69014595D01*
X200142857Y-68728880D02*
X200761904Y-68728880D01*
X200428571Y-69109833D01*
X200571428Y-69109833D01*
X200666666Y-69157452D01*
X200714285Y-69205071D01*
X200761904Y-69300309D01*
X200761904Y-69538404D01*
X200714285Y-69633642D01*
X200666666Y-69681261D01*
X200571428Y-69728880D01*
X200285714Y-69728880D01*
X200190476Y-69681261D01*
X200142857Y-69633642D01*
D12*
%TO.C,RST*%
X167430000Y-82980000D02*
X167400000Y-82980000D01*
X160970000Y-82980000D02*
X161000000Y-82980000D01*
X160970000Y-76520000D02*
X161000000Y-76520000D01*
X167400000Y-76520000D02*
X167430000Y-76520000D01*
X165500000Y-82980000D02*
X162900000Y-82980000D01*
X167430000Y-76520000D02*
X167430000Y-82980000D01*
X165500000Y-76520000D02*
X162900000Y-76520000D01*
X160970000Y-76520000D02*
X160970000Y-82980000D01*
%TO.C,R_RST1*%
X178620000Y-74453641D02*
X178620000Y-74146359D01*
X179380000Y-74453641D02*
X179380000Y-74146359D01*
%TO.C,R_LED_VERDE1*%
X174253641Y-76080000D02*
X173946359Y-76080000D01*
X174253641Y-75320000D02*
X173946359Y-75320000D01*
%TO.C,R_LED_ROJO1*%
X174253641Y-77980000D02*
X173946359Y-77980000D01*
X174253641Y-77220000D02*
X173946359Y-77220000D01*
%TO.C,Led Verde (PA0)*%
X171500000Y-74965000D02*
X169215000Y-74965000D01*
X169215000Y-74965000D02*
X169215000Y-76435000D01*
X169215000Y-76435000D02*
X171500000Y-76435000D01*
%TO.C,Led Rojo (PA1)*%
X171500000Y-76865000D02*
X169215000Y-76865000D01*
X169215000Y-76865000D02*
X169215000Y-78335000D01*
X169215000Y-78335000D02*
X171500000Y-78335000D01*
%TO.C,USB_IN1*%
X211540000Y-81210000D02*
X211540000Y-80550000D01*
X213270000Y-81210000D02*
X211540000Y-81210000D01*
X215840000Y-73590000D02*
X215630000Y-73590000D01*
X215840000Y-81210000D02*
X215630000Y-81210000D01*
X213270000Y-73590000D02*
X211540000Y-73590000D01*
X211540000Y-73590000D02*
X211540000Y-74240000D01*
X210840000Y-79160000D02*
X210840000Y-78710000D01*
X210840000Y-79160000D02*
X211230000Y-79160000D01*
D13*
%TO.C,STM32*%
X192850000Y-75750000D02*
G75*
G03*
X192850000Y-75750000I-125000J0D01*
G01*
D12*
%TO.C,R102*%
X204846359Y-88120000D02*
X205153641Y-88120000D01*
X204846359Y-88880000D02*
X205153641Y-88880000D01*
%TO.C,R101*%
X205120000Y-86253641D02*
X205120000Y-85946359D01*
X205880000Y-86253641D02*
X205880000Y-85946359D01*
%TO.C,L101*%
X206990000Y-86562779D02*
X206990000Y-86237221D01*
X208010000Y-86562779D02*
X208010000Y-86237221D01*
%TO.C,J2*%
X201330000Y-93220000D02*
X201330000Y-94550000D01*
X200000000Y-93220000D02*
X201330000Y-93220000D01*
X201330000Y-95820000D02*
X201330000Y-98420000D01*
X198730000Y-95820000D02*
X201330000Y-95820000D01*
X198730000Y-93220000D02*
X198730000Y-95820000D01*
X201330000Y-98420000D02*
X175810000Y-98420000D01*
X198730000Y-93220000D02*
X175810000Y-93220000D01*
X175810000Y-93220000D02*
X175810000Y-98420000D01*
%TO.C,J1*%
X175810000Y-61420000D02*
X175810000Y-66620000D01*
X198730000Y-61420000D02*
X175810000Y-61420000D01*
X201330000Y-66620000D02*
X175810000Y-66620000D01*
X198730000Y-61420000D02*
X198730000Y-64020000D01*
X198730000Y-64020000D02*
X201330000Y-64020000D01*
X201330000Y-64020000D02*
X201330000Y-66620000D01*
X200000000Y-61420000D02*
X201330000Y-61420000D01*
X201330000Y-61420000D02*
X201330000Y-62750000D01*
D14*
%TO.C,IC1*%
X207433000Y-80412000D02*
G75*
G03*
X207433000Y-80412000I-36000J0D01*
G01*
D12*
%TO.C,FLASH*%
X180200000Y-86610000D02*
X177200000Y-86610000D01*
X183200000Y-81390000D02*
X177200000Y-81390000D01*
%TO.C,EMI_VDDS_FILTER_USB1*%
X208290000Y-80562779D02*
X208290000Y-80237221D01*
X209310000Y-80562779D02*
X209310000Y-80237221D01*
%TO.C,Crystal_48MHz1*%
X188967767Y-76958579D02*
X187341421Y-75332233D01*
X187341421Y-75332233D02*
X185432233Y-77241421D01*
%TO.C,C2(opt)1*%
X183507836Y-78860000D02*
X183292164Y-78860000D01*
X183507836Y-78140000D02*
X183292164Y-78140000D01*
%TO.C,C1(opt)1*%
X183507836Y-76460000D02*
X183292164Y-76460000D01*
X183507836Y-75740000D02*
X183292164Y-75740000D01*
%TO.C,C203*%
X203840000Y-86207836D02*
X203840000Y-85992164D01*
X204560000Y-86207836D02*
X204560000Y-85992164D01*
%TO.C,C202*%
X206659420Y-82890000D02*
X206940580Y-82890000D01*
X206659420Y-83910000D02*
X206940580Y-83910000D01*
%TO.C,C201*%
X213890000Y-87140580D02*
X213890000Y-86859420D01*
X214910000Y-87140580D02*
X214910000Y-86859420D01*
%TO.C,C105*%
X177760000Y-88292164D02*
X177760000Y-88507836D01*
X177040000Y-88292164D02*
X177040000Y-88507836D01*
%TO.C,C104*%
X197040000Y-85357836D02*
X197040000Y-85142164D01*
X197760000Y-85357836D02*
X197760000Y-85142164D01*
%TO.C,C103*%
X192392164Y-73740000D02*
X192607836Y-73740000D01*
X192392164Y-74460000D02*
X192607836Y-74460000D01*
%TO.C,C102*%
X202060000Y-74742164D02*
X202060000Y-74957836D01*
X201340000Y-74742164D02*
X201340000Y-74957836D01*
%TO.C,C101*%
X198840000Y-85357836D02*
X198840000Y-85142164D01*
X199560000Y-85357836D02*
X199560000Y-85142164D01*
%TO.C,C4*%
X183507836Y-74260000D02*
X183292164Y-74260000D01*
X183507836Y-73540000D02*
X183292164Y-73540000D01*
%TO.C,C3*%
X183507836Y-71660000D02*
X183292164Y-71660000D01*
X183507836Y-70940000D02*
X183292164Y-70940000D01*
D14*
%TO.C,BUCK3.3*%
X212450000Y-87000000D02*
X212450000Y-87800000D01*
X212450000Y-87800000D02*
X209550000Y-87800000D01*
X209550000Y-87800000D02*
X209550000Y-87000000D01*
X209550000Y-87000000D02*
X212450000Y-87000000D01*
X212500000Y-85550000D02*
X212500000Y-86650000D01*
D12*
%TO.C,32KHz_Crystal1*%
X188075000Y-73175000D02*
X188075000Y-71825000D01*
X186325000Y-73175000D02*
X186325000Y-71825000D01*
%TO.C,RST*%
D10*
X159247619Y-79102380D02*
X159723809Y-78769047D01*
X159247619Y-78530952D02*
X160247619Y-78530952D01*
X160247619Y-78911904D01*
X160200000Y-79007142D01*
X160152380Y-79054761D01*
X160057142Y-79102380D01*
X159914285Y-79102380D01*
X159819047Y-79054761D01*
X159771428Y-79007142D01*
X159723809Y-78911904D01*
X159723809Y-78530952D01*
X159295238Y-79483333D02*
X159247619Y-79626190D01*
X159247619Y-79864285D01*
X159295238Y-79959523D01*
X159342857Y-80007142D01*
X159438095Y-80054761D01*
X159533333Y-80054761D01*
X159628571Y-80007142D01*
X159676190Y-79959523D01*
X159723809Y-79864285D01*
X159771428Y-79673809D01*
X159819047Y-79578571D01*
X159866666Y-79530952D01*
X159961904Y-79483333D01*
X160057142Y-79483333D01*
X160152380Y-79530952D01*
X160200000Y-79578571D01*
X160247619Y-79673809D01*
X160247619Y-79911904D01*
X160200000Y-80054761D01*
X160247619Y-80340476D02*
X160247619Y-80911904D01*
X159247619Y-80626190D02*
X160247619Y-80626190D01*
%TO.C,Led Verde (PA0)*%
X168647619Y-73502380D02*
X168171428Y-73502380D01*
X168171428Y-72502380D01*
X169361904Y-73454761D02*
X169266666Y-73502380D01*
X169076190Y-73502380D01*
X168980952Y-73454761D01*
X168933333Y-73359523D01*
X168933333Y-72978571D01*
X168980952Y-72883333D01*
X169076190Y-72835714D01*
X169266666Y-72835714D01*
X169361904Y-72883333D01*
X169409523Y-72978571D01*
X169409523Y-73073809D01*
X168933333Y-73169047D01*
X170266666Y-73502380D02*
X170266666Y-72502380D01*
X170266666Y-73454761D02*
X170171428Y-73502380D01*
X169980952Y-73502380D01*
X169885714Y-73454761D01*
X169838095Y-73407142D01*
X169790476Y-73311904D01*
X169790476Y-73026190D01*
X169838095Y-72930952D01*
X169885714Y-72883333D01*
X169980952Y-72835714D01*
X170171428Y-72835714D01*
X170266666Y-72883333D01*
X171361904Y-72502380D02*
X171695238Y-73502380D01*
X172028571Y-72502380D01*
X172742857Y-73454761D02*
X172647619Y-73502380D01*
X172457142Y-73502380D01*
X172361904Y-73454761D01*
X172314285Y-73359523D01*
X172314285Y-72978571D01*
X172361904Y-72883333D01*
X172457142Y-72835714D01*
X172647619Y-72835714D01*
X172742857Y-72883333D01*
X172790476Y-72978571D01*
X172790476Y-73073809D01*
X172314285Y-73169047D01*
X173219047Y-73502380D02*
X173219047Y-72835714D01*
X173219047Y-73026190D02*
X173266666Y-72930952D01*
X173314285Y-72883333D01*
X173409523Y-72835714D01*
X173504761Y-72835714D01*
X174266666Y-73502380D02*
X174266666Y-72502380D01*
X174266666Y-73454761D02*
X174171428Y-73502380D01*
X173980952Y-73502380D01*
X173885714Y-73454761D01*
X173838095Y-73407142D01*
X173790476Y-73311904D01*
X173790476Y-73026190D01*
X173838095Y-72930952D01*
X173885714Y-72883333D01*
X173980952Y-72835714D01*
X174171428Y-72835714D01*
X174266666Y-72883333D01*
X175123809Y-73454761D02*
X175028571Y-73502380D01*
X174838095Y-73502380D01*
X174742857Y-73454761D01*
X174695238Y-73359523D01*
X174695238Y-72978571D01*
X174742857Y-72883333D01*
X174838095Y-72835714D01*
X175028571Y-72835714D01*
X175123809Y-72883333D01*
X175171428Y-72978571D01*
X175171428Y-73073809D01*
X174695238Y-73169047D01*
X176647619Y-73883333D02*
X176600000Y-73835714D01*
X176504761Y-73692857D01*
X176457142Y-73597619D01*
X176409523Y-73454761D01*
X176361904Y-73216666D01*
X176361904Y-73026190D01*
X176409523Y-72788095D01*
X176457142Y-72645238D01*
X176504761Y-72550000D01*
X176600000Y-72407142D01*
X176647619Y-72359523D01*
X177028571Y-73502380D02*
X177028571Y-72502380D01*
X177409523Y-72502380D01*
X177504761Y-72550000D01*
X177552380Y-72597619D01*
X177600000Y-72692857D01*
X177600000Y-72835714D01*
X177552380Y-72930952D01*
X177504761Y-72978571D01*
X177409523Y-73026190D01*
X177028571Y-73026190D01*
X177980952Y-73216666D02*
X178457142Y-73216666D01*
X177885714Y-73502380D02*
X178219047Y-72502380D01*
X178552380Y-73502380D01*
X179076190Y-72502380D02*
X179171428Y-72502380D01*
X179266666Y-72550000D01*
X179314285Y-72597619D01*
X179361904Y-72692857D01*
X179409523Y-72883333D01*
X179409523Y-73121428D01*
X179361904Y-73311904D01*
X179314285Y-73407142D01*
X179266666Y-73454761D01*
X179171428Y-73502380D01*
X179076190Y-73502380D01*
X178980952Y-73454761D01*
X178933333Y-73407142D01*
X178885714Y-73311904D01*
X178838095Y-73121428D01*
X178838095Y-72883333D01*
X178885714Y-72692857D01*
X178933333Y-72597619D01*
X178980952Y-72550000D01*
X179076190Y-72502380D01*
X179742857Y-73883333D02*
X179790476Y-73835714D01*
X179885714Y-73692857D01*
X179933333Y-73597619D01*
X179980952Y-73454761D01*
X180028571Y-73216666D01*
X180028571Y-73026190D01*
X179980952Y-72788095D01*
X179933333Y-72645238D01*
X179885714Y-72550000D01*
X179790476Y-72407142D01*
X179742857Y-72359523D01*
%TO.C,Led Rojo (PA1)*%
X168852380Y-80002380D02*
X168376190Y-80002380D01*
X168376190Y-79002380D01*
X169566666Y-79954761D02*
X169471428Y-80002380D01*
X169280952Y-80002380D01*
X169185714Y-79954761D01*
X169138095Y-79859523D01*
X169138095Y-79478571D01*
X169185714Y-79383333D01*
X169280952Y-79335714D01*
X169471428Y-79335714D01*
X169566666Y-79383333D01*
X169614285Y-79478571D01*
X169614285Y-79573809D01*
X169138095Y-79669047D01*
X170471428Y-80002380D02*
X170471428Y-79002380D01*
X170471428Y-79954761D02*
X170376190Y-80002380D01*
X170185714Y-80002380D01*
X170090476Y-79954761D01*
X170042857Y-79907142D01*
X169995238Y-79811904D01*
X169995238Y-79526190D01*
X170042857Y-79430952D01*
X170090476Y-79383333D01*
X170185714Y-79335714D01*
X170376190Y-79335714D01*
X170471428Y-79383333D01*
X172280952Y-80002380D02*
X171947619Y-79526190D01*
X171709523Y-80002380D02*
X171709523Y-79002380D01*
X172090476Y-79002380D01*
X172185714Y-79050000D01*
X172233333Y-79097619D01*
X172280952Y-79192857D01*
X172280952Y-79335714D01*
X172233333Y-79430952D01*
X172185714Y-79478571D01*
X172090476Y-79526190D01*
X171709523Y-79526190D01*
X172852380Y-80002380D02*
X172757142Y-79954761D01*
X172709523Y-79907142D01*
X172661904Y-79811904D01*
X172661904Y-79526190D01*
X172709523Y-79430952D01*
X172757142Y-79383333D01*
X172852380Y-79335714D01*
X172995238Y-79335714D01*
X173090476Y-79383333D01*
X173138095Y-79430952D01*
X173185714Y-79526190D01*
X173185714Y-79811904D01*
X173138095Y-79907142D01*
X173090476Y-79954761D01*
X172995238Y-80002380D01*
X172852380Y-80002380D01*
X173614285Y-79335714D02*
X173614285Y-80192857D01*
X173566666Y-80288095D01*
X173471428Y-80335714D01*
X173423809Y-80335714D01*
X173614285Y-79002380D02*
X173566666Y-79050000D01*
X173614285Y-79097619D01*
X173661904Y-79050000D01*
X173614285Y-79002380D01*
X173614285Y-79097619D01*
X174233333Y-80002380D02*
X174138095Y-79954761D01*
X174090476Y-79907142D01*
X174042857Y-79811904D01*
X174042857Y-79526190D01*
X174090476Y-79430952D01*
X174138095Y-79383333D01*
X174233333Y-79335714D01*
X174376190Y-79335714D01*
X174471428Y-79383333D01*
X174519047Y-79430952D01*
X174566666Y-79526190D01*
X174566666Y-79811904D01*
X174519047Y-79907142D01*
X174471428Y-79954761D01*
X174376190Y-80002380D01*
X174233333Y-80002380D01*
X176042857Y-80383333D02*
X175995238Y-80335714D01*
X175900000Y-80192857D01*
X175852380Y-80097619D01*
X175804761Y-79954761D01*
X175757142Y-79716666D01*
X175757142Y-79526190D01*
X175804761Y-79288095D01*
X175852380Y-79145238D01*
X175900000Y-79050000D01*
X175995238Y-78907142D01*
X176042857Y-78859523D01*
X176423809Y-80002380D02*
X176423809Y-79002380D01*
X176804761Y-79002380D01*
X176900000Y-79050000D01*
X176947619Y-79097619D01*
X176995238Y-79192857D01*
X176995238Y-79335714D01*
X176947619Y-79430952D01*
X176900000Y-79478571D01*
X176804761Y-79526190D01*
X176423809Y-79526190D01*
X177376190Y-79716666D02*
X177852380Y-79716666D01*
X177280952Y-80002380D02*
X177614285Y-79002380D01*
X177947619Y-80002380D01*
X178804761Y-80002380D02*
X178233333Y-80002380D01*
X178519047Y-80002380D02*
X178519047Y-79002380D01*
X178423809Y-79145238D01*
X178328571Y-79240476D01*
X178233333Y-79288095D01*
X179138095Y-80383333D02*
X179185714Y-80335714D01*
X179280952Y-80192857D01*
X179328571Y-80097619D01*
X179376190Y-79954761D01*
X179423809Y-79716666D01*
X179423809Y-79526190D01*
X179376190Y-79288095D01*
X179328571Y-79145238D01*
X179280952Y-79050000D01*
X179185714Y-78907142D01*
X179138095Y-78859523D01*
%TO.C,FLASH*%
X178809523Y-87978571D02*
X178476190Y-87978571D01*
X178476190Y-88502380D02*
X178476190Y-87502380D01*
X178952380Y-87502380D01*
X179809523Y-88502380D02*
X179333333Y-88502380D01*
X179333333Y-87502380D01*
X180095238Y-88216666D02*
X180571428Y-88216666D01*
X180000000Y-88502380D02*
X180333333Y-87502380D01*
X180666666Y-88502380D01*
X180952380Y-88454761D02*
X181095238Y-88502380D01*
X181333333Y-88502380D01*
X181428571Y-88454761D01*
X181476190Y-88407142D01*
X181523809Y-88311904D01*
X181523809Y-88216666D01*
X181476190Y-88121428D01*
X181428571Y-88073809D01*
X181333333Y-88026190D01*
X181142857Y-87978571D01*
X181047619Y-87930952D01*
X181000000Y-87883333D01*
X180952380Y-87788095D01*
X180952380Y-87692857D01*
X181000000Y-87597619D01*
X181047619Y-87550000D01*
X181142857Y-87502380D01*
X181380952Y-87502380D01*
X181523809Y-87550000D01*
X181952380Y-88502380D02*
X181952380Y-87502380D01*
X181952380Y-87978571D02*
X182523809Y-87978571D01*
X182523809Y-88502380D02*
X182523809Y-87502380D01*
%TD*%
M02*
