M48
; DRILL file {KiCad (5.1.9)-1} date 08/30/21 22:49:50
; FORMAT={-:-/ absolute / inch / decimal}
; #@! TF.CreationDate,2021-08-30T22:49:50-04:00
; #@! TF.GenerationSoftware,Kicad,Pcbnew,(5.1.9)-1
; #@! TF.FileFunction,Plated,1,2,PTH
FMAT,2
INCH
T1C0.0079
T2C0.0118
T3C0.0177
T4C0.0197
T5C0.0394
%
G90
G05
T1
X6.2539Y-2.313
X6.2539Y-2.5394
X6.2539Y-2.7854
X6.2539Y-3.0709
X6.2638Y-3.2972
X6.2638Y-3.5138
X6.2638Y-3.7795
X6.2638Y-3.9862
X6.4606Y-2.313
X6.4902Y-2.7854
X6.5Y-3.5039
X6.5098Y-3.9862
X6.7067Y-2.313
X6.7264Y-2.7756
X6.7264Y-3.3268
X6.7461Y-2.5394
X6.7657Y-3.5236
X6.7657Y-3.7697
X6.7657Y-3.9862
X6.9134Y-3.435
X6.9173Y-3.3189
X6.9331Y-2.7657
X6.9429Y-3.1299
X7.0118Y-3.9862
X7.0394Y-3.1654
X7.0413Y-2.313
X7.0551Y-3.2776
X7.0551Y-3.3642
X7.0807Y-3.5138
X7.1299Y-3.0118
X7.1299Y-3.4646
X7.1339Y-3.2776
X7.1339Y-3.3642
X7.2185Y-3.9862
X7.252Y-3.2835
X7.252Y-3.3346
X7.3268Y-2.313
X7.3366Y-2.7165
X7.3563Y-3.2185
X7.3957Y-3.9862
X7.5Y-2.8169
X7.5Y-3.2874
X7.5197Y-3.5295
X7.5236Y-3.3346
X7.5531Y-3.9862
X7.5709Y-3.4173
X7.5827Y-2.3228
X7.5827Y-2.9626
X7.622Y-3.5295
X7.6535Y-3.4193
X7.6713Y-3.0413
X7.6713Y-3.1988
X7.685Y-3.3543
X7.7402Y-3.1201
X7.75Y-3.9862
X7.7717Y-3.4193
X7.7835Y-3.2972
X7.8091Y-3.0413
X7.8091Y-3.1988
X7.8189Y-2.3228
X7.8425Y-3.2972
X7.8465Y-3.4154
X7.9409Y-3.0138
X7.9665Y-2.8248
X7.9961Y-3.9862
X8.0315Y-3.813
X8.0354Y-2.4705
X8.0394Y-3.1673
X8.0551Y-2.9232
X8.063Y-3.0157
X8.063Y-3.1024
X8.063Y-3.5531
X8.0827Y-3.2185
X8.1043Y-2.3228
X8.1142Y-2.6969
X8.1181Y-3.0886
X8.1496Y-3.5531
X8.2323Y-3.9862
X8.2441Y-3.3012
X8.252Y-2.7756
X8.3996Y-2.3228
X8.3996Y-3.9862
X8.4094Y-3.2874
X8.4193Y-2.7362
X8.4291Y-2.5295
X8.4331Y-3.6319
X8.4331Y-3.7736
T2
X7.5118Y-2.8799
X8.2067Y-2.9291
T4
X8.0354Y-3.2894
T5
X6.974Y-2.4705
X6.974Y-2.5705
X6.974Y-3.7224
X6.974Y-3.8224
X7.074Y-2.4705
X7.074Y-2.5705
X7.074Y-3.7224
X7.074Y-3.8224
X7.174Y-2.4705
X7.174Y-2.5705
X7.174Y-3.7224
X7.174Y-3.8224
X7.274Y-2.4705
X7.274Y-2.5705
X7.274Y-3.7224
X7.274Y-3.8224
X7.374Y-2.4705
X7.374Y-2.5705
X7.374Y-3.7224
X7.374Y-3.8224
X7.474Y-2.4705
X7.474Y-2.5705
X7.474Y-3.7224
X7.474Y-3.8224
X7.574Y-2.4705
X7.574Y-2.5705
X7.574Y-3.7224
X7.574Y-3.8224
X7.674Y-2.4705
X7.674Y-2.5705
X7.674Y-3.7224
X7.674Y-3.8224
X7.774Y-2.4705
X7.774Y-2.5705
X7.774Y-3.7224
X7.774Y-3.8224
X7.874Y-2.4705
X7.874Y-2.5705
X7.874Y-3.7224
X7.874Y-3.8224
T3
G00X8.4272Y-2.9065
M15
G01X8.4587Y-2.9065
M16
G05
G00X8.4587Y-3.188
M15
G01X8.4272Y-3.188
M16
G05
T0
M30
