%TF.GenerationSoftware,KiCad,Pcbnew,(5.1.9)-1*%
%TF.CreationDate,2021-08-30T22:49:49-04:00*%
%TF.ProjectId,STM32G491,53544d33-3247-4343-9931-2e6b69636164,rev?*%
%TF.SameCoordinates,Original*%
%TF.FileFunction,Soldermask,Bot*%
%TF.FilePolarity,Negative*%
%FSLAX46Y46*%
G04 Gerber Fmt 4.6, Leading zero omitted, Abs format (unit mm)*
G04 Created by KiCad (PCBNEW (5.1.9)-1) date 2021-08-30 22:49:49*
%MOMM*%
%LPD*%
G01*
G04 APERTURE LIST*
%ADD10C,3.000000*%
%ADD11O,1.900000X1.050000*%
%ADD12R,1.700000X1.700000*%
%ADD13O,1.700000X1.700000*%
%ADD14R,2.540000X3.510000*%
G04 APERTURE END LIST*
D10*
%TO.C,REF\u002A\u002A*%
X165100000Y-64250000D03*
%TD*%
%TO.C,REF\u002A\u002A*%
X165100000Y-95750000D03*
%TD*%
%TO.C,REF\u002A\u002A*%
X209600000Y-95750000D03*
%TD*%
%TO.C,REF\u002A\u002A*%
X209600000Y-64250000D03*
%TD*%
D11*
%TO.C,USB_IN1*%
X214450000Y-73825000D03*
X214450000Y-80975000D03*
%TD*%
D12*
%TO.C,J2*%
X200000000Y-94550000D03*
D13*
X200000000Y-97090000D03*
X197460000Y-94550000D03*
X197460000Y-97090000D03*
X194920000Y-94550000D03*
X194920000Y-97090000D03*
X192380000Y-94550000D03*
X192380000Y-97090000D03*
X189840000Y-94550000D03*
X189840000Y-97090000D03*
X187300000Y-94550000D03*
X187300000Y-97090000D03*
X184760000Y-94550000D03*
X184760000Y-97090000D03*
X182220000Y-94550000D03*
X182220000Y-97090000D03*
X179680000Y-94550000D03*
X179680000Y-97090000D03*
X177140000Y-94550000D03*
X177140000Y-97090000D03*
%TD*%
%TO.C,J1*%
X177140000Y-65290000D03*
X177140000Y-62750000D03*
X179680000Y-65290000D03*
X179680000Y-62750000D03*
X182220000Y-65290000D03*
X182220000Y-62750000D03*
X184760000Y-65290000D03*
X184760000Y-62750000D03*
X187300000Y-65290000D03*
X187300000Y-62750000D03*
X189840000Y-65290000D03*
X189840000Y-62750000D03*
X192380000Y-65290000D03*
X192380000Y-62750000D03*
X194920000Y-65290000D03*
X194920000Y-62750000D03*
X197460000Y-65290000D03*
X197460000Y-62750000D03*
X200000000Y-65290000D03*
D12*
X200000000Y-62750000D03*
%TD*%
D14*
%TO.C,Battery1*%
X200680000Y-79850000D03*
X171320000Y-79850000D03*
%TD*%
M02*
